<?xml version="1.0" encoding="UTF-8" standalone="no"?>
<!-- Created with Inkscape (http://www.inkscape.org/) -->

<svg
   width="108.44419mm"
   height="29.460938mm"
   viewBox="0 0 108.44419 29.460938"
   version="1.1"
   id="svg5"
   inkscape:version="1.1.2 (0a00cf5339, 2022-02-04)"
   sodipodi:docname="drawing.svg"
   xmlns:inkscape="http://www.inkscape.org/namespaces/inkscape"
   xmlns:sodipodi="http://sodipodi.sourceforge.net/DTD/sodipodi-0.dtd"
   xmlns="http://www.w3.org/2000/svg"
   xmlns:svg="http://www.w3.org/2000/svg">
  <sodipodi:namedview
     id="namedview7"
     pagecolor="#ffffff"
     bordercolor="#666666"
     borderopacity="1.0"
     inkscape:pageshadow="2"
     inkscape:pageopacity="0.0"
     inkscape:pagecheckerboard="0"
     inkscape:document-units="mm"
     showgrid="true"
     inkscape:snap-text-baseline="false"
     inkscape:snap-grids="true"
     inkscape:zoom="1.9726643"
     inkscape:cx="121.15594"
     inkscape:cy="177.42502"
     inkscape:window-width="1920"
     inkscape:window-height="1014"
     inkscape:window-x="0"
     inkscape:window-y="0"
     inkscape:window-maximized="1"
     inkscape:current-layer="layer2"
     fit-margin-top="0"
     fit-margin-left="0"
     fit-margin-right="0"
     fit-margin-bottom="0">
    <inkscape:grid
       type="xygrid"
       id="grid32120"
       originx="-3.0629028"
       originy="-2.1911201" />
  </sodipodi:namedview>
  <defs
     id="defs2" />
  <g
     inkscape:label="Layer 1"
     inkscape:groupmode="layer"
     id="layer1"
     transform="translate(-3.0629027,-2.1911201)" />
  <g
     inkscape:groupmode="layer"
     id="layer2"
     inkscape:label="Layer 2"
     transform="translate(-3.0629027,-2.1911201)">
    <g
       id="g111"
       transform="matrix(-0.0706292,0,0,0.0697269,39.225125,-0.90927531)"
       style="fill:#00b400;fill-opacity:1">
      <path
         class="st0"
         d="M 480.178,82.194 C 460.553,62.552 433.286,50.354 403.319,50.363 H 210.967 c -35.136,-0.009 -67.098,14.289 -90.106,37.332 -23.044,23.008 -37.341,54.97 -37.332,90.116 v 25.498 102.581 c 0,8.068 0,16.137 0,24.206 0,3.453 -0.252,6.576 -0.772,9.257 -0.79,4.051 -2.056,6.975 -4.06,9.518 -2.039,2.533 -5.032,5.023 -10.68,7.348 -0.512,0.2 -0.945,0.295 -1.675,0.304 -1.076,0.009 -2.897,-0.33 -5.136,-1.31 -2.238,-0.963 -4.824,-2.507 -7.296,-4.329 -3.201,-2.351 -7.244,-3.323 -11.174,-2.689 -3.93,0.633 -7.453,2.828 -9.76,6.064 l -30.209,42.46 c -4.737,6.663 -3.244,15.86 3.366,20.675 11.938,8.684 25.507,15.096 39.7,19.381 14.203,4.278 29.047,6.428 43.692,6.437 14.28,-0.009 28.37,-2.056 41.47,-6.402 13.092,-4.346 25.247,-11.027 35.206,-20.466 1.353,-1.284 2.62,-2.62 3.852,-3.99 v 34.4 c 0,3.912 1.579,7.756 4.355,10.523 2.776,2.776 6.611,4.364 10.533,4.364 h 42.52 36.69 c 3.921,0 7.756,-1.587 10.523,-4.364 2.768,-2.768 4.364,-6.611 4.364,-10.523 V 382.75 h 115.805 v 64.001 c 0,3.912 1.596,7.756 4.364,10.523 2.767,2.776 6.602,4.364 10.524,4.364 h 87.382 c 3.922,0 7.757,-1.587 10.533,-4.364 2.776,-2.768 4.355,-6.611 4.355,-10.523 V 159.053 c 0.017,-29.967 -12.182,-57.235 -31.823,-76.859 z m 2.046,349.66 h -57.599 v -64.001 c 0,-3.921 -1.588,-7.756 -4.364,-10.524 -2.768,-2.776 -6.611,-4.364 -10.532,-4.364 H 264.15 c -3.922,0 -7.766,1.588 -10.533,4.364 -2.776,2.768 -4.364,6.603 -4.364,10.524 v 64.001 H 227.46 199.827 v -99.233 c 0.902,-7.036 1.405,-13.153 1.683,-17.699 0.156,-2.36 0.243,-4.294 0.286,-5.744 0.026,-0.728 0.043,-1.327 0.06,-1.804 0,-0.486 0.009,-0.79 0.009,-1.119 l -0.009,-0.382 c 0,-0.113 0,-0.217 -0.017,-0.546 -0.018,-0.191 -0.018,-0.373 -0.087,-0.998 -0.052,-0.356 -0.078,-0.729 -0.364,-1.892 -0.078,-0.304 -0.173,-0.668 -0.346,-1.154 -0.296,-0.763 -0.591,-1.761 -1.892,-3.678 -0.686,-0.954 -1.666,-2.213 -3.584,-3.592 -0.954,-0.677 -2.169,-1.362 -3.643,-1.883 -1.467,-0.52 -3.202,-0.85 -4.954,-0.85 -1.944,-0.009 -3.835,0.408 -5.388,1.014 -1.553,0.599 -2.768,1.371 -3.705,2.091 -1.874,1.475 -2.742,2.715 -3.366,3.634 -0.599,0.928 -0.92,1.597 -1.162,2.144 -0.46,1.067 -0.616,1.657 -0.746,2.125 -0.243,0.885 -0.278,1.267 -0.338,1.588 -0.095,0.582 -0.104,0.79 -0.122,0.99 -0.026,0.33 -0.035,0.442 -0.044,0.555 -0.017,0.346 -0.017,0.408 -0.017,0.528 0,0.26 0,0.555 -0.009,0.946 -0.009,0.616 -0.044,1.604 -0.104,2.924 -0.321,7.279 -1.588,24.205 -5.683,41.557 -2.039,8.667 -4.788,17.42 -8.285,25.03 -3.479,7.626 -7.721,14.02 -12.294,18.323 -6.212,5.9 -14.437,10.61 -24.102,13.821 -9.647,3.21 -20.674,4.885 -32.083,4.876 -11.695,0.009 -23.763,-1.753 -35.094,-5.17 -6.35,-1.909 -12.414,-4.399 -18.123,-7.305 l 13.082,-18.402 c 4.946,2.126 10.602,3.739 16.952,3.748 4.165,0.008 8.624,-0.755 12.884,-2.49 6.342,-2.576 11.904,-5.891 16.545,-9.916 7.002,-6.012 11.678,-13.63 14.228,-21.273 2.586,-7.67 3.297,-15.296 3.315,-22.522 0,-8.069 0,-16.137 0,-24.206 V 203.308 177.81 c 0,-27.016 10.896,-51.343 28.595,-69.059 17.725,-17.699 42.043,-28.605 69.059,-28.605 h 192.351 c 21.837,0 41.47,8.806 55.794,23.104 14.306,14.333 23.104,33.958 23.112,55.803 v 272.801 z"
         id="path105"
         style="fill:#4a9225;fill-opacity:1" />
      <path
         class="st0"
         d="m 180.758,183.796 c -10.272,0 -18.61,8.329 -18.61,18.618 0,10.282 8.338,18.61 18.61,18.61 10.281,0 18.619,-8.328 18.619,-18.61 0,-10.29 -8.338,-18.618 -18.619,-18.618 z"
         id="path107"
         style="fill:#4a9225;fill-opacity:1" />
      <path
         class="st0"
         d="m 346.206,192.481 c -3.661,0 -6.619,2.966 -6.619,6.62 -0.009,27.433 -11.096,52.21 -29.073,70.195 -17.985,17.977 -42.763,29.073 -70.196,29.073 -3.652,0 -6.62,2.967 -6.62,6.62 0,3.653 2.968,6.619 6.62,6.619 62.136,-0.008 112.499,-50.371 112.499,-112.507 -0.001,-3.654 -2.959,-6.62 -6.611,-6.62 z"
         id="path109"
         style="fill:#4a9225;fill-opacity:1" />
    </g>
    <rect
       style="fill:#4a9225;fill-opacity:1;stroke:#4a9225;stroke-width:0.248571;stroke-opacity:1"
       id="rect16907"
       width="68.852097"
       height="15.874057"
       x="42.530708"
       y="2.3154056" />
    <g
       aria-label="Green"
       id="text18143"
       style="font-size:14.1111px;line-height:125%;font-family:KacstBook;-inkscape-font-specification:KacstBook;letter-spacing:0px;word-spacing:0px;fill:#ffffff;stroke-width:0.264583px">
      <path
         d="M 62.758595,13.712169 V 10.949204 H 60.484834 V 9.8054333 h 3.651798 v 4.4166087 q -0.806151,0.571886 -1.777668,0.868164 -0.971516,0.289387 -2.073945,0.289387 -2.411565,0 -3.775822,-1.405597 -1.357367,-1.412488 -1.357367,-3.927406 0,-2.5218082 1.357367,-3.927406 1.364257,-1.4124881 3.775822,-1.4124881 1.005967,0 1.908581,0.2480467 0.909505,0.2480467 1.674315,0.7303597 V 7.1664922 Q 63.096214,6.5119246 62.228051,6.1811956 61.359888,5.8504667 60.402152,5.8504667 q -1.887911,0 -2.838757,1.0541984 -0.943955,1.0541984 -0.943955,3.1419249 0,2.080836 0.943955,3.135034 0.950846,1.054199 2.838757,1.054199 0.73725,0 1.316025,-0.124024 0.578776,-0.130913 1.040418,-0.39963 z"
         id="path13540" />
      <path
         d="m 71.09572,8.6478821 q -0.213596,-0.1240233 -0.468533,-0.1791448 -0.248046,-0.062012 -0.551214,-0.062012 -1.074869,0 -1.653645,0.7027989 -0.571885,0.6959088 -0.571885,2.0050445 v 4.065209 H 66.575758 V 7.4627702 h 1.274685 v 1.1988923 q 0.39963,-0.702799 1.040418,-1.0404181 0.640787,-0.3445092 1.557182,-0.3445092 0.130913,0 0.289387,0.02067 0.158475,0.01378 0.3514,0.048231 z"
         id="path13542" />
      <path
         d="m 78.716265,11.004326 v 0.620116 h -5.829097 q 0.08268,1.309136 0.785481,1.998154 0.70969,0.682129 1.970594,0.682129 0.730359,0 1.412488,-0.179145 0.689018,-0.179145 1.364256,-0.537435 v 1.198893 q -0.682128,0.289387 -1.398707,0.440971 -0.71658,0.151584 -1.453829,0.151584 -1.84657,0 -2.928329,-1.074868 -1.074869,-1.074869 -1.074869,-2.907659 0,-1.8948009 1.019747,-3.0041208 1.026638,-1.11621 2.762965,-1.11621 1.557182,0 2.459796,1.0059671 0.909504,0.9990769 0.909504,2.7216237 z m -1.267794,-0.37207 Q 77.434691,9.5918375 76.862805,8.9717208 76.29781,8.3516041 75.360745,8.3516041 q -1.061089,0 -1.701876,0.5994462 -0.633897,0.5994461 -0.73036,1.6880957 z"
         id="path13544" />
      <path
         d="m 87.3979,11.004326 v 0.620116 h -5.829097 q 0.08268,1.309136 0.785481,1.998154 0.70969,0.682129 1.970593,0.682129 0.73036,0 1.412489,-0.179145 0.689018,-0.179145 1.364256,-0.537435 v 1.198893 q -0.682128,0.289387 -1.398707,0.440971 -0.71658,0.151584 -1.45383,0.151584 -1.846569,0 -2.928328,-1.074868 -1.074869,-1.074869 -1.074869,-2.907659 0,-1.8948009 1.019747,-3.0041208 1.026638,-1.11621 2.762964,-1.11621 1.557182,0 2.459797,1.0059671 0.909504,0.9990769 0.909504,2.7216237 z m -1.267794,-0.37207 Q 86.116326,9.5918375 85.54444,8.9717208 84.979445,8.3516041 84.04238,8.3516041 q -1.061089,0 -1.701876,0.5994462 -0.633897,0.5994461 -0.73036,1.6880957 z"
         id="path13546" />
      <path
         d="m 95.893498,10.522013 v 4.657765 h -1.267794 v -4.616424 q 0,-1.0955398 -0.427191,-1.6398645 -0.427192,-0.5443246 -1.281575,-0.5443246 -1.026638,0 -1.619194,0.6545676 -0.592556,0.6545676 -0.592556,1.7845585 v 4.361487 H 89.430504 V 7.4627702 h 1.274684 v 1.1988923 q 0.454753,-0.6959088 1.067979,-1.0404181 0.620117,-0.3445092 1.426269,-0.3445092 1.329806,0 2.011934,0.8268222 0.682128,0.8199321 0.682128,2.4184556 z"
         id="path13548" />
    </g>
    <g
       aria-label="ElePHPant"
       transform="scale(0.98597587,1.0142236)"
       id="text18143-7"
       style="font-size:14.1058px;line-height:125%;font-family:KacstBook;-inkscape-font-specification:KacstBook;letter-spacing:0px;word-spacing:0px;fill:#4a9225;stroke-width:0.264482px">
      <path
         d="m 43.09362,20.725242 h 6.501892 v 1.170891 h -5.110597 v 3.044318 h 4.897082 v 1.170892 h -4.897082 v 3.72619 h 5.234574 v 1.170892 H 43.09362 Z"
         id="path13569" />
      <path
         d="m 51.951071,20.291323 h 1.267317 v 10.717102 h -1.267317 z"
         id="path13571" />
      <path
         d="m 62.468432,26.834541 v 0.619883 h -5.826907 q 0.08265,1.308644 0.785186,1.997404 0.709423,0.681872 1.969853,0.681872 0.730085,0 1.411957,-0.179078 0.68876,-0.179077 1.363745,-0.537232 v 1.198442 q -0.681872,0.289279 -1.398183,0.440806 -0.71631,0.151527 -1.453283,0.151527 -1.845876,0 -2.927229,-1.074465 -1.074465,-1.074465 -1.074465,-2.906566 0,-1.89409 1.019365,-3.002993 1.026252,-1.115791 2.761926,-1.115791 1.556597,0 2.458873,1.00559 0.909162,0.998701 0.909162,2.720601 z M 61.201115,26.46261 q -0.01378,-1.040027 -0.585446,-1.659911 -0.564783,-0.619883 -1.501497,-0.619883 -1.06069,0 -1.701236,0.599221 -0.633659,0.599221 -0.730085,1.687461 z"
         id="path13573" />
      <path
         d="m 65.994881,21.868583 v 3.863942 h 1.74945 q 0.971151,0 1.501496,-0.502795 0.530345,-0.502794 0.530345,-1.43262 0,-0.922938 -0.530345,-1.425733 -0.530345,-0.502794 -1.501496,-0.502794 z m -1.391295,-1.143341 h 3.140745 q 1.728787,0 2.610399,0.785186 0.8885,0.778298 0.8885,2.286682 0,1.522159 -0.8885,2.300458 -0.881612,0.778298 -2.610399,0.778298 h -1.74945 v 4.132559 h -1.391295 z"
         id="path13575" />
      <path
         d="m 73.10977,20.725242 h 1.391295 v 4.215209 h 5.055496 v -4.215209 h 1.391295 v 10.283183 h -1.391295 v -4.897082 h -5.055496 v 4.897082 H 73.10977 Z"
         id="path13577" />
      <path
         d="m 85.107966,21.868583 v 3.863942 h 1.74945 q 0.971151,0 1.501496,-0.502795 0.530345,-0.502794 0.530345,-1.43262 0,-0.922938 -0.530345,-1.425733 -0.530345,-0.502794 -1.501496,-0.502794 z m -1.391295,-1.143341 h 3.140745 q 1.728786,0 2.610399,0.785186 0.8885,0.778298 0.8885,2.286682 0,1.522159 -0.8885,2.300458 -0.881613,0.778298 -2.610399,0.778298 h -1.74945 v 4.132559 h -1.391295 z"
         id="path13579" />
      <path
         d="m 95.039882,27.130707 q -1.535935,0 -2.128268,0.351268 -0.592333,0.351267 -0.592333,1.198442 0,0.674984 0.440806,1.074465 0.447694,0.392593 1.212217,0.392593 1.053802,0 1.687461,-0.74386 0.640547,-0.750749 0.640547,-1.990516 V 27.130707 Z M 97.56763,26.60725 v 4.401175 h -1.267318 v -1.170892 q -0.433919,0.702535 -1.081353,1.040027 -0.647434,0.330605 -1.584147,0.330605 -1.184667,0 -1.887202,-0.661209 -0.695647,-0.668097 -0.695647,-1.783888 0,-1.301756 0.867837,-1.962965 0.874725,-0.66121 2.603512,-0.66121 h 1.777 v -0.123976 q 0,-0.874725 -0.578558,-1.34997 -0.571671,-0.482131 -1.611698,-0.482131 -0.661209,0 -1.287981,0.158414 -0.626771,0.158415 -1.205329,0.475245 v -1.170892 q 0.695647,-0.268616 1.349969,-0.399481 0.654322,-0.137752 1.274205,-0.137752 1.673687,0 2.500198,0.867838 0.826512,0.867837 0.826512,2.631062 z"
         id="path13581" />
      <path
         d="m 106.59038,26.352409 v 4.656016 h -1.26732 v -4.614691 q 0,-1.095128 -0.42703,-1.639248 -0.42703,-0.54412 -1.28109,-0.54412 -1.02625,0 -1.61859,0.654322 -0.59233,0.654322 -0.59233,1.783888 v 4.359849 h -1.27421 v -7.714109 h 1.27421 v 1.198442 q 0.45458,-0.695648 1.06758,-1.040028 0.61988,-0.34438 1.42573,-0.34438 1.32931,0 2.01118,0.826512 0.68187,0.819624 0.68187,2.417547 z"
         id="path13583" />
      <path
         d="m 110.37168,21.10406 v 2.190256 h 2.61039 v 0.984926 h -2.61039 v 4.187659 q 0,0.943601 0.25484,1.212217 0.26172,0.268617 1.0538,0.268617 h 1.30175 v 1.06069 h -1.30175 q -1.46706,0 -2.02496,-0.54412 -0.55789,-0.551008 -0.55789,-1.997404 v -4.187659 h -0.92983 v -0.984926 h 0.92983 V 21.10406 Z"
         id="path13585" />
    </g>
  </g>
  <style
     type="text/css"
     id="style9">
	.st0{fill:#000000;}
</style>
  <style
     type="text/css"
     id="style103">
	.st0{fill:#000000;}
</style>
</svg>
